<?xml version="1.0" encoding="utf-8"?>
<!-- Generator: Adobe Illustrator 19.0.0, SVG Export Plug-In . SVG Version: 6.00 Build 0)  -->
<svg version="1.1" id="Слой_1" xmlns="http://www.w3.org/2000/svg" xmlns:xlink="http://www.w3.org/1999/xlink" x="0px" y="0px"
	 viewBox="1.3 37.2 24 14.3" style="enable-background:new 1.3 37.2 24 14.3;" xml:space="preserve">
<style type="text/css">
	.st0{fill:#BBBBBB;}
</style>
<g>
	<rect x="5.8" y="50.3" class="st0" width="3" height="1"/>
	<rect x="17.8" y="50.3" class="st0" width="3" height="1"/>
	<path class="st0" d="M6.8,44.3c0.4-2.7,5.7-2.6,6,0H6.8z"/>
	<path class="st0" d="M14.8,44.3c0.4-2.7,5.7-2.6,6,0H14.8z"/>
	<g>
		<path class="st0" d="M23.8,50.3h-20v-4.8l-1.7-4.4l0.5-0.5c2.5-2.5,7.1-4.1,11.2-2.4c4.1-1.7,8.7-0.1,11.2,2.4l0.5,0.5l-1.7,4.4
			V50.3z M5.8,48.3h16v-3.2l1.3-3.5c-2.2-1.9-5.8-2.9-8.9-1.4l-0.4,0.2l-0.4-0.2c-3.1-1.5-6.7-0.5-8.9,1.4l1.3,3.5V48.3z"/>
	</g>
</g>
</svg>
